<svg width="549" height="198" viewBox="0 0 549 198" fill="none" xmlns="http://www.w3.org/2000/svg">
<rect width="506" height="198" rx="20" fill="#738FFF"/>
<path d="M20.731 33.067C20.731 31.911 20.9917 30.874 21.513 29.956C22.0343 29.0267 22.7427 28.3013 23.638 27.78C24.5447 27.2587 25.5477 26.998 26.647 26.998C27.939 26.998 29.0667 27.3097 30.03 27.933C30.9933 28.5563 31.696 29.4403 32.138 30.585H30.285C29.9563 29.871 29.4803 29.3213 28.857 28.936C28.245 28.5507 27.5083 28.358 26.647 28.358C25.8197 28.358 25.0773 28.5507 24.42 28.936C23.7627 29.3213 23.247 29.871 22.873 30.585C22.499 31.2877 22.312 32.115 22.312 33.067C22.312 34.0077 22.499 34.835 22.873 35.549C23.247 36.2517 23.7627 36.7957 24.42 37.181C25.0773 37.5663 25.8197 37.759 26.647 37.759C27.5083 37.759 28.245 37.572 28.857 37.198C29.4803 36.8127 29.9563 36.263 30.285 35.549H32.138C31.696 36.6823 30.9933 37.5607 30.03 38.184C29.0667 38.796 27.939 39.102 26.647 39.102C25.5477 39.102 24.5447 38.847 23.638 38.337C22.7427 37.8157 22.0343 37.096 21.513 36.178C20.9917 35.26 20.731 34.223 20.731 33.067ZM33.8628 34.308C33.8628 33.356 34.0555 32.523 34.4408 31.809C34.8262 31.0837 35.3532 30.5227 36.0218 30.126C36.7018 29.7293 37.4555 29.531 38.2828 29.531C39.0988 29.531 39.8072 29.7067 40.4078 30.058C41.0085 30.4093 41.4562 30.8513 41.7508 31.384V29.684H43.3148V39H41.7508V37.266C41.4448 37.81 40.9858 38.2633 40.3738 38.626C39.7732 38.9773 39.0705 39.153 38.2658 39.153C37.4385 39.153 36.6905 38.949 36.0218 38.541C35.3532 38.133 34.8262 37.5607 34.4408 36.824C34.0555 36.0873 33.8628 35.2487 33.8628 34.308ZM41.7508 34.325C41.7508 33.6223 41.6092 33.0103 41.3258 32.489C41.0425 31.9677 40.6572 31.571 40.1698 31.299C39.6938 31.0157 39.1668 30.874 38.5888 30.874C38.0108 30.874 37.4838 31.01 37.0078 31.282C36.5318 31.554 36.1522 31.9507 35.8688 32.472C35.5855 32.9933 35.4438 33.6053 35.4438 34.308C35.4438 35.022 35.5855 35.6453 35.8688 36.178C36.1522 36.6993 36.5318 37.1017 37.0078 37.385C37.4838 37.657 38.0108 37.793 38.5888 37.793C39.1668 37.793 39.6938 37.657 40.1698 37.385C40.6572 37.1017 41.0425 36.6993 41.3258 36.178C41.6092 35.6453 41.7508 35.0277 41.7508 34.325ZM47.4761 26.42V39H45.9291V26.42H47.4761ZM51.6597 26.42V39H50.1127V26.42H51.6597ZM60.3415 27.151V34.648C60.3415 35.702 60.5965 36.484 61.1065 36.994C61.6279 37.504 62.3475 37.759 63.2655 37.759C64.1722 37.759 64.8805 37.504 65.3905 36.994C65.9119 36.484 66.1725 35.702 66.1725 34.648V27.151H67.7195V34.631C67.7195 35.617 67.5212 36.45 67.1245 37.13C66.7279 37.7987 66.1895 38.2973 65.5095 38.626C64.8409 38.9547 64.0872 39.119 63.2485 39.119C62.4099 39.119 61.6505 38.9547 60.9705 38.626C60.3019 38.2973 59.7692 37.7987 59.3725 37.13C58.9872 36.45 58.7945 35.617 58.7945 34.631V27.151H60.3415ZM73.5982 39.153C72.8842 39.153 72.2439 39.034 71.6772 38.796C71.1105 38.5467 70.6629 38.2067 70.3342 37.776C70.0055 37.334 69.8242 36.8297 69.7902 36.263H71.3882C71.4335 36.7277 71.6489 37.1073 72.0342 37.402C72.4309 37.6967 72.9465 37.844 73.5812 37.844C74.1705 37.844 74.6352 37.7137 74.9752 37.453C75.3152 37.1923 75.4852 36.8637 75.4852 36.467C75.4852 36.059 75.3039 35.7587 74.9412 35.566C74.5785 35.362 74.0175 35.1637 73.2582 34.971C72.5669 34.7897 72.0002 34.6083 71.5582 34.427C71.1275 34.2343 70.7535 33.9567 70.4362 33.594C70.1302 33.22 69.9772 32.7327 69.9772 32.132C69.9772 31.656 70.1189 31.2197 70.4022 30.823C70.6855 30.4263 71.0879 30.1147 71.6092 29.888C72.1305 29.65 72.7255 29.531 73.3942 29.531C74.4255 29.531 75.2585 29.7917 75.8932 30.313C76.5279 30.8343 76.8679 31.5483 76.9132 32.455H75.3662C75.3322 31.9677 75.1339 31.5767 74.7712 31.282C74.4199 30.9873 73.9439 30.84 73.3432 30.84C72.7879 30.84 72.3459 30.959 72.0172 31.197C71.6885 31.435 71.5242 31.7467 71.5242 32.132C71.5242 32.438 71.6205 32.693 71.8132 32.897C72.0172 33.0897 72.2665 33.2483 72.5612 33.373C72.8672 33.4863 73.2865 33.6167 73.8192 33.764C74.4879 33.9453 75.0319 34.1267 75.4512 34.308C75.8705 34.478 76.2275 34.7387 76.5222 35.09C76.8282 35.4413 76.9869 35.9003 76.9982 36.467C76.9982 36.977 76.8565 37.436 76.5732 37.844C76.2899 38.252 75.8875 38.575 75.3662 38.813C74.8562 39.0397 74.2669 39.153 73.5982 39.153Z" fill="white"/>
<path d="M40.484 100.172H34.22V106.58H28.388V100.172H22.124V94.664H28.388V88.22H34.22V94.664H40.484V100.172ZM43.5775 89.444V83.72H53.5495V110H47.1415V89.444H43.5775ZM73.8526 94.808V99.92H58.0126V94.808H73.8526ZM97.1474 89.084H85.9154V94.052C86.3954 93.524 87.0674 93.092 87.9314 92.756C88.7954 92.42 89.7314 92.252 90.7394 92.252C92.5394 92.252 94.0274 92.66 95.2034 93.476C96.4034 94.292 97.2794 95.348 97.8314 96.644C98.3834 97.94 98.6594 99.344 98.6594 100.856C98.6594 103.664 97.8674 105.896 96.2834 107.552C94.6994 109.184 92.4674 110 89.5874 110C87.6674 110 85.9994 109.676 84.5834 109.028C83.1674 108.356 82.0754 107.432 81.3074 106.256C80.5394 105.08 80.1194 103.724 80.0474 102.188H86.0594C86.2034 102.932 86.5514 103.556 87.1034 104.06C87.6554 104.54 88.4114 104.78 89.3714 104.78C90.4994 104.78 91.3394 104.42 91.8914 103.7C92.4434 102.98 92.7194 102.02 92.7194 100.82C92.7194 99.644 92.4314 98.744 91.8554 98.12C91.2794 97.496 90.4394 97.184 89.3354 97.184C88.5194 97.184 87.8474 97.388 87.3194 97.796C86.7914 98.18 86.4434 98.696 86.2754 99.344H80.3354V83.684H97.1474V89.084ZM106.378 95.888C104.122 94.688 102.994 92.804 102.994 90.236C102.994 88.94 103.33 87.764 104.002 86.708C104.674 85.628 105.694 84.776 107.062 84.152C108.43 83.504 110.11 83.18 112.102 83.18C114.094 83.18 115.762 83.504 117.106 84.152C118.474 84.776 119.494 85.628 120.166 86.708C120.838 87.764 121.174 88.94 121.174 90.236C121.174 91.532 120.862 92.66 120.238 93.62C119.638 94.58 118.822 95.336 117.79 95.888C119.086 96.512 120.082 97.376 120.777 98.48C121.474 99.56 121.822 100.832 121.822 102.296C121.822 104 121.39 105.476 120.526 106.724C119.662 107.948 118.486 108.884 116.998 109.532C115.534 110.18 113.902 110.504 112.102 110.504C110.302 110.504 108.658 110.18 107.17 109.532C105.706 108.884 104.542 107.948 103.678 106.724C102.814 105.476 102.382 104 102.382 102.296C102.382 100.808 102.73 99.524 103.426 98.444C104.122 97.34 105.106 96.488 106.378 95.888ZM115.198 91.172C115.198 90.188 114.91 89.432 114.334 88.904C113.782 88.352 113.038 88.076 112.102 88.076C111.166 88.076 110.41 88.352 109.834 88.904C109.282 89.456 109.006 90.224 109.006 91.208C109.006 92.144 109.294 92.888 109.87 93.44C110.446 93.968 111.19 94.232 112.102 94.232C113.014 94.232 113.758 93.956 114.334 93.404C114.91 92.852 115.198 92.108 115.198 91.172ZM112.102 98.552C110.974 98.552 110.062 98.864 109.366 99.488C108.67 100.088 108.322 100.928 108.322 102.008C108.322 103.016 108.658 103.844 109.33 104.492C110.026 105.14 110.95 105.464 112.102 105.464C113.254 105.464 114.154 105.14 114.802 104.492C115.474 103.844 115.81 103.016 115.81 102.008C115.81 100.952 115.462 100.112 114.766 99.488C114.094 98.864 113.206 98.552 112.102 98.552ZM143.905 89.084H132.673V94.052C133.153 93.524 133.825 93.092 134.689 92.756C135.553 92.42 136.489 92.252 137.497 92.252C139.297 92.252 140.785 92.66 141.961 93.476C143.161 94.292 144.037 95.348 144.589 96.644C145.141 97.94 145.417 99.344 145.417 100.856C145.417 103.664 144.625 105.896 143.041 107.552C141.457 109.184 139.225 110 136.345 110C134.425 110 132.757 109.676 131.341 109.028C129.925 108.356 128.833 107.432 128.065 106.256C127.297 105.08 126.877 103.724 126.805 102.188H132.817C132.961 102.932 133.309 103.556 133.861 104.06C134.413 104.54 135.169 104.78 136.129 104.78C137.257 104.78 138.097 104.42 138.649 103.7C139.201 102.98 139.477 102.02 139.477 100.82C139.477 99.644 139.189 98.744 138.613 98.12C138.037 97.496 137.197 97.184 136.093 97.184C135.277 97.184 134.605 97.388 134.077 97.796C133.549 98.18 133.201 98.696 133.033 99.344H127.093V83.684H143.905V89.084ZM164.907 94.808V99.92H149.067V94.808H164.907ZM188.202 89.084H176.97V94.052C177.45 93.524 178.122 93.092 178.986 92.756C179.85 92.42 180.786 92.252 181.794 92.252C183.594 92.252 185.082 92.66 186.258 93.476C187.458 94.292 188.334 95.348 188.886 96.644C189.438 97.94 189.714 99.344 189.714 100.856C189.714 103.664 188.922 105.896 187.338 107.552C185.754 109.184 183.522 110 180.642 110C178.722 110 177.054 109.676 175.638 109.028C174.222 108.356 173.13 107.432 172.362 106.256C171.594 105.08 171.174 103.724 171.102 102.188H177.114C177.258 102.932 177.606 103.556 178.158 104.06C178.71 104.54 179.466 104.78 180.426 104.78C181.554 104.78 182.394 104.42 182.946 103.7C183.498 102.98 183.774 102.02 183.774 100.82C183.774 99.644 183.486 98.744 182.91 98.12C182.334 97.496 181.494 97.184 180.39 97.184C179.574 97.184 178.902 97.388 178.374 97.796C177.846 98.18 177.498 98.696 177.33 99.344H171.39V83.684H188.202V89.084ZM206.108 90.812C205.916 89.924 205.58 89.264 205.1 88.832C204.62 88.376 203.936 88.148 203.048 88.148C201.68 88.148 200.696 88.748 200.096 89.948C199.496 91.124 199.184 92.996 199.16 95.564C199.688 94.724 200.444 94.064 201.428 93.584C202.436 93.104 203.54 92.864 204.74 92.864C207.092 92.864 208.976 93.608 210.392 95.096C211.832 96.584 212.552 98.66 212.552 101.324C212.552 103.076 212.192 104.612 211.472 105.932C210.776 107.252 209.744 108.284 208.376 109.028C207.032 109.772 205.436 110.144 203.588 110.144C199.892 110.144 197.324 108.992 195.884 106.688C194.444 104.36 193.724 101.024 193.724 96.68C193.724 92.12 194.48 88.736 195.992 86.528C197.528 84.296 199.976 83.18 203.336 83.18C205.136 83.18 206.648 83.54 207.872 84.26C209.12 84.956 210.056 85.88 210.68 87.032C211.328 88.184 211.712 89.444 211.832 90.812H206.108ZM203.264 97.724C202.232 97.724 201.368 98.036 200.672 98.66C200 99.26 199.664 100.124 199.664 101.252C199.664 102.404 199.976 103.304 200.6 103.952C201.248 104.6 202.16 104.924 203.336 104.924C204.392 104.924 205.22 104.612 205.82 103.988C206.444 103.34 206.756 102.464 206.756 101.36C206.756 100.232 206.456 99.344 205.856 98.696C205.256 98.048 204.392 97.724 203.264 97.724ZM229.03 90.812C228.838 89.924 228.502 89.264 228.022 88.832C227.542 88.376 226.858 88.148 225.97 88.148C224.602 88.148 223.618 88.748 223.018 89.948C222.418 91.124 222.106 92.996 222.082 95.564C222.61 94.724 223.366 94.064 224.35 93.584C225.358 93.104 226.462 92.864 227.662 92.864C230.014 92.864 231.898 93.608 233.314 95.096C234.754 96.584 235.474 98.66 235.474 101.324C235.474 103.076 235.114 104.612 234.394 105.932C233.698 107.252 232.666 108.284 231.298 109.028C229.954 109.772 228.358 110.144 226.51 110.144C222.814 110.144 220.246 108.992 218.806 106.688C217.366 104.36 216.646 101.024 216.646 96.68C216.646 92.12 217.402 88.736 218.914 86.528C220.45 84.296 222.898 83.18 226.258 83.18C228.058 83.18 229.57 83.54 230.794 84.26C232.042 84.956 232.978 85.88 233.602 87.032C234.25 88.184 234.634 89.444 234.754 90.812H229.03ZM226.186 97.724C225.154 97.724 224.29 98.036 223.594 98.66C222.922 99.26 222.586 100.124 222.586 101.252C222.586 102.404 222.898 103.304 223.522 103.952C224.17 104.6 225.082 104.924 226.258 104.924C227.314 104.924 228.142 104.612 228.742 103.988C229.366 103.34 229.678 102.464 229.678 101.36C229.678 100.232 229.378 99.344 228.778 98.696C228.178 98.048 227.314 97.724 226.186 97.724ZM255.048 94.808V99.92H239.208V94.808H255.048ZM259.623 105.068C260.439 104.42 260.811 104.12 260.739 104.168C263.091 102.224 264.939 100.628 266.283 99.38C267.651 98.132 268.803 96.824 269.739 95.456C270.675 94.088 271.143 92.756 271.143 91.46C271.143 90.476 270.915 89.708 270.459 89.156C270.003 88.604 269.319 88.328 268.407 88.328C267.495 88.328 266.775 88.676 266.247 89.372C265.743 90.044 265.491 91.004 265.491 92.252H259.551C259.599 90.212 260.031 88.508 260.847 87.14C261.687 85.772 262.779 84.764 264.123 84.116C265.491 83.468 267.003 83.144 268.659 83.144C271.515 83.144 273.663 83.876 275.103 85.34C276.567 86.804 277.299 88.712 277.299 91.064C277.299 93.632 276.423 96.02 274.671 98.228C272.919 100.412 270.687 102.548 267.975 104.636H277.695V109.64H259.623V105.068ZM280.405 96.5C280.405 92.372 281.197 89.12 282.781 86.744C284.389 84.368 286.969 83.18 290.521 83.18C294.073 83.18 296.641 84.368 298.225 86.744C299.833 89.12 300.637 92.372 300.637 96.5C300.637 100.676 299.833 103.952 298.225 106.328C296.641 108.704 294.073 109.892 290.521 109.892C286.969 109.892 284.389 108.704 282.781 106.328C281.197 103.952 280.405 100.676 280.405 96.5ZM294.589 96.5C294.589 94.076 294.325 92.216 293.797 90.92C293.269 89.6 292.177 88.94 290.521 88.94C288.865 88.94 287.773 89.6 287.245 90.92C286.717 92.216 286.453 94.076 286.453 96.5C286.453 98.132 286.549 99.488 286.741 100.568C286.933 101.624 287.317 102.488 287.893 103.16C288.493 103.808 289.369 104.132 290.521 104.132C291.673 104.132 292.537 103.808 293.113 103.16C293.713 102.488 294.109 101.624 294.301 100.568C294.493 99.488 294.589 98.132 294.589 96.5ZM320.666 88.328L311.63 110H305.33L314.474 89.012H303.278V83.756H320.666V88.328ZM323.155 96.5C323.155 92.372 323.947 89.12 325.531 86.744C327.139 84.368 329.719 83.18 333.271 83.18C336.823 83.18 339.391 84.368 340.975 86.744C342.583 89.12 343.387 92.372 343.387 96.5C343.387 100.676 342.583 103.952 340.975 106.328C339.391 108.704 336.823 109.892 333.271 109.892C329.719 109.892 327.139 108.704 325.531 106.328C323.947 103.952 323.155 100.676 323.155 96.5ZM337.339 96.5C337.339 94.076 337.075 92.216 336.547 90.92C336.019 89.6 334.927 88.94 333.271 88.94C331.615 88.94 330.523 89.6 329.995 90.92C329.467 92.216 329.203 94.076 329.203 96.5C329.203 98.132 329.299 99.488 329.491 100.568C329.683 101.624 330.067 102.488 330.643 103.16C331.243 103.808 332.119 104.132 333.271 104.132C334.423 104.132 335.287 103.808 335.863 103.16C336.463 102.488 336.859 101.624 337.051 100.568C337.243 99.488 337.339 98.132 337.339 96.5Z" fill="white"/>
<path d="M23.76 156.1V164.96C23.76 166.013 24.0333 166.807 24.58 167.34C25.14 167.873 25.9133 168.14 26.9 168.14C27.9 168.14 28.6733 167.873 29.22 167.34C29.78 166.807 30.06 166.013 30.06 164.96V156.1H32.34V164.92C32.34 166.053 32.0933 167.013 31.6 167.8C31.1067 168.587 30.4467 169.173 29.62 169.56C28.7933 169.947 27.88 170.14 26.88 170.14C25.88 170.14 24.9667 169.947 24.14 169.56C23.3267 169.173 22.68 168.587 22.2 167.8C21.72 167.013 21.48 166.053 21.48 164.92V156.1H23.76ZM46.7286 170H44.4486L37.5886 159.62V170H35.3086V156.08H37.5886L44.4486 166.44V156.08H46.7286V170ZM52.0027 156.1V170H49.7227V156.1H52.0027ZM63.9761 156.1V157.96H60.2761V170H57.9961V157.96H54.2761V156.1H63.9761ZM68.5652 157.94V162.02H73.3652V163.88H68.5652V168.14H73.9652V170H66.2852V156.08H73.9652V157.94H68.5652ZM81.3134 156.1C82.7934 156.1 84.0868 156.387 85.1934 156.96C86.3134 157.52 87.1734 158.333 87.7734 159.4C88.3868 160.453 88.6934 161.687 88.6934 163.1C88.6934 164.513 88.3868 165.74 87.7734 166.78C87.1734 167.82 86.3134 168.62 85.1934 169.18C84.0868 169.727 82.7934 170 81.3134 170H76.7734V156.1H81.3134ZM81.3134 168.14C82.9401 168.14 84.1868 167.7 85.0534 166.82C85.9201 165.94 86.3534 164.7 86.3534 163.1C86.3534 161.487 85.9201 160.227 85.0534 159.32C84.1868 158.413 82.9401 157.96 81.3134 157.96H79.0534V168.14H81.3134ZM100.728 170.14C99.7951 170.14 98.9551 169.98 98.2084 169.66C97.4618 169.327 96.8751 168.86 96.4484 168.26C96.0218 167.66 95.8084 166.96 95.8084 166.16H98.2484C98.3018 166.76 98.5351 167.253 98.9484 167.64C99.3751 168.027 99.9684 168.22 100.728 168.22C101.515 168.22 102.128 168.033 102.568 167.66C103.008 167.273 103.228 166.78 103.228 166.18C103.228 165.713 103.088 165.333 102.808 165.04C102.542 164.747 102.202 164.52 101.788 164.36C101.388 164.2 100.828 164.027 100.108 163.84C99.2018 163.6 98.4618 163.36 97.8884 163.12C97.3284 162.867 96.8484 162.48 96.4484 161.96C96.0484 161.44 95.8484 160.747 95.8484 159.88C95.8484 159.08 96.0484 158.38 96.4484 157.78C96.8484 157.18 97.4084 156.72 98.1284 156.4C98.8484 156.08 99.6818 155.92 100.628 155.92C101.975 155.92 103.075 156.26 103.928 156.94C104.795 157.607 105.275 158.527 105.368 159.7H102.848C102.808 159.193 102.568 158.76 102.128 158.4C101.688 158.04 101.108 157.86 100.388 157.86C99.7351 157.86 99.2018 158.027 98.7884 158.36C98.3751 158.693 98.1684 159.173 98.1684 159.8C98.1684 160.227 98.2951 160.58 98.5484 160.86C98.8151 161.127 99.1484 161.34 99.5484 161.5C99.9484 161.66 100.495 161.833 101.188 162.02C102.108 162.273 102.855 162.527 103.428 162.78C104.015 163.033 104.508 163.427 104.908 163.96C105.322 164.48 105.528 165.18 105.528 166.06C105.528 166.767 105.335 167.433 104.948 168.06C104.575 168.687 104.022 169.193 103.288 169.58C102.568 169.953 101.715 170.14 100.728 170.14ZM117.199 156.1V157.96H113.499V170H111.219V157.96H107.499V156.1H117.199ZM127.888 167.16H122.068L121.068 170H118.688L123.668 156.08H126.308L131.288 170H128.888L127.888 167.16ZM127.248 165.3L124.988 158.84L122.708 165.3H127.248ZM142.433 156.1V157.96H138.733V170H136.453V157.96H132.733V156.1H142.433ZM147.022 157.94V162.02H151.822V163.88H147.022V168.14H152.422V170H144.742V156.08H152.422V157.94H147.022ZM159.81 170.14C158.877 170.14 158.037 169.98 157.29 169.66C156.544 169.327 155.957 168.86 155.53 168.26C155.104 167.66 154.89 166.96 154.89 166.16H157.33C157.384 166.76 157.617 167.253 158.03 167.64C158.457 168.027 159.05 168.22 159.81 168.22C160.597 168.22 161.21 168.033 161.65 167.66C162.09 167.273 162.31 166.78 162.31 166.18C162.31 165.713 162.17 165.333 161.89 165.04C161.624 164.747 161.284 164.52 160.87 164.36C160.47 164.2 159.91 164.027 159.19 163.84C158.284 163.6 157.544 163.36 156.97 163.12C156.41 162.867 155.93 162.48 155.53 161.96C155.13 161.44 154.93 160.747 154.93 159.88C154.93 159.08 155.13 158.38 155.53 157.78C155.93 157.18 156.49 156.72 157.21 156.4C157.93 156.08 158.764 155.92 159.71 155.92C161.057 155.92 162.157 156.26 163.01 156.94C163.877 157.607 164.357 158.527 164.45 159.7H161.93C161.89 159.193 161.65 158.76 161.21 158.4C160.77 158.04 160.19 157.86 159.47 157.86C158.817 157.86 158.284 158.027 157.87 158.36C157.457 158.693 157.25 159.173 157.25 159.8C157.25 160.227 157.377 160.58 157.63 160.86C157.897 161.127 158.23 161.34 158.63 161.5C159.03 161.66 159.577 161.833 160.27 162.02C161.19 162.273 161.937 162.527 162.51 162.78C163.097 163.033 163.59 163.427 163.99 163.96C164.404 164.48 164.61 165.18 164.61 166.06C164.61 166.767 164.417 167.433 164.03 168.06C163.657 168.687 163.104 169.193 162.37 169.58C161.65 169.953 160.797 170.14 159.81 170.14Z" fill="white"/>
</svg>
