<svg width="330" height="120" viewBox="0 0 330 120" fill="none" xmlns="http://www.w3.org/2000/svg">
<rect width="330" height="120" rx="60" fill="white"/>
<g clip-path="url(#clip0_5277_349)">
<mask id="mask0_5277_349" style="mask-type:luminance" maskUnits="userSpaceOnUse" x="40" y="20" width="65" height="80">
<path d="M40 20.0015H104.996V100H40V20.0015Z" fill="white"/>
</mask>
<g mask="url(#mask0_5277_349)">
<path fill-rule="evenodd" clip-rule="evenodd" d="M89.9185 25.1348L76.413 38.3401C81.2595 38.7595 84.4572 40.5575 87.1332 43.0535C87.3037 43.2128 87.3152 43.4815 87.1603 43.6568L83.0109 48.3501C82.8533 48.5295 82.5768 48.5415 82.3947 48.3848C79.9035 46.2455 77.3424 44.9475 74.1189 44.9475C68.4429 44.9475 64.3567 49.5721 64.3567 55.2341V55.8021C64.3567 61.1261 68.6372 65.6888 74.0625 65.7095C77.7887 65.7235 80.1203 64.3281 82.6535 62.1168C82.8274 61.9655 83.0931 61.9675 83.2561 62.1295L87.3736 66.2108C87.5421 66.3781 87.5435 66.6548 87.377 66.8248C83.9912 70.2741 80.1821 72.4115 73.8777 72.4115C64.7303 72.4115 57.7711 66.0088 56.7561 57.5608L45.2337 68.8275V25.1348H89.9185ZM102.38 20.0015H42.6168C41.1719 20.0015 40 21.1501 40 22.5681V70.6955C40 70.8315 40.0115 70.9668 40.0346 71.1008C40.1678 71.9268 43.6529 91.4401 71.7337 99.8875C71.9837 99.9635 72.2405 100 72.4993 100C72.7588 100 73.0156 99.9635 73.2656 99.8875C101.344 91.4401 104.829 71.9268 104.963 71.1008C104.985 70.9668 104.997 70.8315 104.997 70.6955V22.5681C104.997 21.1501 103.825 20.0015 102.38 20.0015Z" fill="#4B71FC"/>
</g>
<path fill-rule="evenodd" clip-rule="evenodd" d="M130.088 55.385C125.137 55.385 121.459 51.6682 121.459 46.9715V46.9248C121.459 42.2715 125.066 38.4619 130.234 38.4619C133.407 38.4619 135.304 39.4912 136.868 40.9867L134.511 43.6275C133.212 42.4829 131.891 41.7803 130.209 41.7803C127.373 41.7803 125.329 44.0726 125.329 46.8754V46.9248C125.329 49.7275 127.325 52.066 130.209 52.066C132.132 52.066 133.311 51.3172 134.632 50.1503L136.987 52.4637C135.256 54.2622 133.334 55.385 130.088 55.385Z" fill="#4B71FC"/>
<path fill-rule="evenodd" clip-rule="evenodd" d="M140.092 55.385V38.4619H152.399V41.7753H143.658V45.2072H151.349V48.5199H143.658V52.0723H152.514V55.385H140.092Z" fill="#4B71FC"/>
<path fill-rule="evenodd" clip-rule="evenodd" d="M165.508 44.2394C165.508 42.6436 164.445 41.823 162.714 41.823H159.18V46.681H162.782C164.515 46.681 165.508 45.7152 165.508 44.2877V44.2394ZM165.438 55.385L161.974 49.9685H159.18V55.385H155.621V38.4619H163.013C166.824 38.4619 169.111 40.565 169.111 44.046V44.0943C169.111 46.8254 167.703 48.543 165.646 49.3405L169.596 55.385H165.438Z" fill="#4B71FC"/>
<path fill-rule="evenodd" clip-rule="evenodd" d="M181.544 41.8945V55.385H177.832V41.8945H172.701V38.4619H186.676V41.8945H181.544Z" fill="#4B71FC"/>
<path fill-rule="evenodd" clip-rule="evenodd" d="M189.783 55.385H192.889V38.4619H189.783V55.385Z" fill="#4B71FC"/>
<path fill-rule="evenodd" clip-rule="evenodd" d="M201.137 41.8461V45.4489H208.921V48.8332H201.137V55.385H197.547V38.4619H209.969V41.8461H201.137Z" fill="#4B71FC"/>
<path fill-rule="evenodd" clip-rule="evenodd" d="M213.074 55.385H216.18V38.4619H213.074V55.385Z" fill="#4B71FC"/>
<path fill-rule="evenodd" clip-rule="evenodd" d="M222.391 55.385V38.4619H234.698V41.7753H225.956V45.2072H233.648V48.5199H225.956V52.0723H234.813V55.385H222.391Z" fill="#4B71FC"/>
<path fill-rule="evenodd" clip-rule="evenodd" d="M249.572 46.9248C249.572 43.9268 247.525 41.823 244.493 41.823H241.629V52.0239H244.493C247.525 52.0239 249.572 49.9685 249.572 46.9732V46.9248ZM244.493 55.385H237.92V38.4619H244.493C249.79 38.4619 253.448 42.1131 253.448 46.8737V46.9248C253.448 51.6861 249.79 55.385 244.493 55.385Z" fill="#4B71FC"/>
<path fill-rule="evenodd" clip-rule="evenodd" d="M130.296 72.3542C130.296 71.1694 129.241 70.4925 127.229 70.4925H123.586V74.2926H127.46C129.208 74.2926 130.296 73.5691 130.296 72.3542ZM129.654 67.4774C129.654 66.4008 128.746 65.7081 127.098 65.7081H123.586V69.4158H126.999C128.565 69.4158 129.654 68.7546 129.654 67.4774ZM130.973 67.3084C130.973 68.7231 130.049 69.4466 129.142 69.8162C130.511 70.2002 131.616 70.9387 131.616 72.4308C131.616 74.2926 129.95 75.385 127.427 75.385H122.299V64.6157H127.213C129.489 64.6157 130.973 65.6623 130.973 67.3084Z" fill="#4B71FC"/>
<path fill-rule="evenodd" clip-rule="evenodd" d="M133.256 73.8464H134.614V66.0593H133.256V73.8464ZM133.168 64.3571H134.721V63.0771H133.168V64.3571Z" fill="#4B71FC"/>
<path fill-rule="evenodd" clip-rule="evenodd" d="M140.111 67.2155C138.653 67.2155 137.449 68.2613 137.449 69.9465C137.449 71.6006 138.683 72.7095 140.111 72.7095C141.569 72.7095 142.937 71.6165 142.937 69.9625C142.937 68.2925 141.569 67.2155 140.111 67.2155ZM140.125 76.923C138.846 76.923 137.657 76.5481 136.63 75.7995L137.151 74.8628C138.028 75.5336 139.01 75.8933 140.111 75.8933C141.806 75.8933 142.907 74.91 142.907 73.0213V72.0693C142.238 73.0053 141.301 73.7705 139.888 73.7705C138.043 73.7705 136.273 72.3345 136.273 69.9778C136.273 67.6058 138.058 66.1538 139.888 66.1538C141.33 66.1538 142.267 66.9031 142.892 67.7773V66.326H144.037V72.99C144.037 75.5961 142.49 76.923 140.125 76.923Z" fill="#4B71FC"/>
<path fill-rule="evenodd" clip-rule="evenodd" d="M152.325 73.8464C149.343 73.8464 147.143 71.481 147.143 68.4763C147.143 65.5014 149.328 63.0771 152.369 63.0771C154.245 63.0771 155.367 63.7463 156.401 64.7277L155.603 65.5908C154.732 64.7575 153.757 64.1625 152.355 64.1625C150.066 64.1625 148.353 66.0223 148.353 68.4465C148.353 70.8715 150.08 72.7603 152.355 72.7603C153.772 72.7603 154.703 72.2103 155.692 71.258L156.459 72.0171C155.382 73.1177 154.2 73.8464 152.325 73.8464Z" fill="#4B71FC"/>
<path fill-rule="evenodd" clip-rule="evenodd" d="M161.872 67.1229C160.259 67.1229 159.149 68.3905 159.149 69.9863C159.149 71.5816 160.331 72.8637 161.901 72.8637C163.515 72.8637 164.637 71.5955 164.637 70.0142C164.637 68.4044 163.442 67.1229 161.872 67.1229ZM161.872 73.8461C159.639 73.8461 158.012 72.1089 158.012 70.0142C158.012 67.9202 159.654 66.1538 161.901 66.1538C164.134 66.1538 165.776 67.8917 165.776 69.9863C165.776 72.0804 164.119 73.8461 161.872 73.8461Z" fill="#4B71FC"/>
<path fill-rule="evenodd" clip-rule="evenodd" d="M178.263 66.1538C180.149 66.1538 181.305 67.3192 181.305 69.1839V73.8461H180.086V69.4464C180.086 67.9894 179.293 67.174 177.962 67.174C176.726 67.174 175.696 68.0186 175.696 69.5048V73.8461H174.492V69.4173C174.492 68.0036 173.684 67.174 172.385 67.174C171.085 67.174 170.103 68.1644 170.103 69.5482V73.8461H168.883V66.3146H170.103V67.5817C170.642 66.8389 171.371 66.1538 172.749 66.1538C174.08 66.1538 174.936 66.8097 175.379 67.6543C175.966 66.824 176.837 66.1538 178.263 66.1538Z" fill="#4B71FC"/>
<path fill-rule="evenodd" clip-rule="evenodd" d="M192.238 66.1538C194.124 66.1538 195.28 67.3192 195.28 69.1839V73.8461H194.06V69.4464C194.06 67.9894 193.268 67.174 191.937 67.174C190.701 67.174 189.671 68.0186 189.671 69.5048V73.8461H188.467V69.4173C188.467 68.0036 187.658 67.174 186.36 67.174C185.06 67.174 184.078 68.1644 184.078 69.5482V73.8461H182.857V66.3146H184.078V67.5817C184.616 66.8389 185.345 66.1538 186.723 66.1538C188.054 66.1538 188.91 66.8097 189.354 67.6543C189.94 66.824 190.812 66.1538 192.238 66.1538Z" fill="#4B71FC"/>
<path fill-rule="evenodd" clip-rule="evenodd" d="M203.358 69.587C203.231 68.2478 202.373 67.0798 200.738 67.0798C199.309 67.0798 198.229 68.1483 198.07 69.587H203.358ZM200.96 72.8916C202.088 72.8916 202.882 72.4784 203.548 71.8522L204.31 72.4645C203.485 73.2909 202.485 73.8461 200.928 73.8461C198.674 73.8461 196.832 72.294 196.832 70.0003C196.832 67.8631 198.499 66.1538 200.769 66.1538C203.199 66.1538 204.596 67.8917 204.596 70.0573C204.596 70.1568 204.596 70.2709 204.58 70.3989H198.07C198.245 71.9942 199.516 72.8916 200.96 72.8916Z" fill="#4B71FC"/>
<path fill-rule="evenodd" clip-rule="evenodd" d="M207.393 73.8461H206.148V66.2879H207.393V68.2614C208.008 67.0041 209.221 66.0974 210.807 66.1565V67.3696H210.709C208.882 67.3696 207.393 68.5541 207.393 70.8346V73.8461Z" fill="#4B71FC"/>
<path fill-rule="evenodd" clip-rule="evenodd" d="M216.681 73.8461C214.219 73.8461 212.359 72.0943 212.359 70.0142C212.359 67.9202 214.219 66.1538 216.681 66.1538C218.28 66.1538 219.275 66.7382 220.057 67.4645L219.226 68.2339C218.557 67.621 217.807 67.1229 216.666 67.1229C214.953 67.1229 213.647 68.3905 213.647 69.9857C213.647 71.5955 214.986 72.8631 216.747 72.8631C217.823 72.8631 218.655 72.3935 219.324 71.7667L220.123 72.4214C219.275 73.2478 218.263 73.8461 216.681 73.8461Z" fill="#4B71FC"/>
<path fill-rule="evenodd" clip-rule="evenodd" d="M226.651 69.587C226.524 68.2478 225.666 67.0798 224.031 67.0798C222.602 67.0798 221.522 68.1483 221.363 69.587H226.651ZM224.253 72.8916C225.381 72.8916 226.175 72.4784 226.841 71.8522L227.603 72.4645C226.778 73.2909 225.778 73.8461 224.221 73.8461C221.967 73.8461 220.125 72.294 220.125 70.0003C220.125 67.8631 221.792 66.1538 224.062 66.1538C226.492 66.1538 227.889 67.8917 227.889 70.0573C227.889 70.1568 227.889 70.2709 227.873 70.3989H221.363C221.538 71.9942 222.809 72.8916 224.253 72.8916Z" fill="#4B71FC"/>
<path fill-rule="evenodd" clip-rule="evenodd" d="M239.446 65.7389H236.823V70.4774H239.386C241.106 70.4774 242.232 69.5233 242.232 68.0928C242.232 66.539 241.12 65.7389 239.446 65.7389ZM239.342 71.5849H236.823V75.385H235.652V64.6157H239.535C241.876 64.6157 243.416 65.9087 243.416 68.0469C243.416 70.385 241.55 71.5849 239.342 71.5849Z" fill="#4B71FC"/>
<path fill-rule="evenodd" clip-rule="evenodd" d="M246.036 71.4739C246.036 72.4227 246.857 72.969 247.814 72.969C249.114 72.969 250.181 72.1354 250.181 70.9564V70.2373C249.661 70.0793 248.964 69.9213 248.102 69.9213C246.775 69.9213 246.036 70.5252 246.036 71.4739ZM245.913 67.6777L245.598 66.7718C246.378 66.3982 247.144 66.1538 248.17 66.1538C250.099 66.1538 251.18 67.1889 251.18 69.1446V73.6881H250.168V72.5666C249.675 73.2428 248.854 73.8461 247.609 73.8461C246.296 73.8461 244.969 73.0701 244.969 71.5168C244.969 69.9354 246.2 69.1018 247.992 69.1018C248.895 69.1018 249.538 69.231 250.168 69.4178V69.1587C250.168 67.8216 249.388 67.1313 248.061 67.1313C247.226 67.1313 246.569 67.3616 245.913 67.6777Z" fill="#4B71FC"/>
<path fill-rule="evenodd" clip-rule="evenodd" d="M255.53 73.8461H254.285V66.2879H255.53V68.2614C256.145 67.0041 257.358 66.0974 258.944 66.1565V67.3696H258.846C257.018 67.3696 255.53 68.5541 255.53 70.8346V73.8461Z" fill="#4B71FC"/>
<path fill-rule="evenodd" clip-rule="evenodd" d="M262.714 72.9217C262.714 73.9165 263.235 74.2798 264.009 74.2798C264.396 74.2798 264.723 74.2011 265.125 73.9959V75.0379C264.723 75.2592 264.291 75.385 263.741 75.385C262.505 75.385 261.568 74.7379 261.568 73.0798V68.1525H260.496V67.079H261.568V64.6157H262.714V67.079H265.154V68.1525H262.714V72.9217Z" fill="#4B71FC"/>
<path fill-rule="evenodd" clip-rule="evenodd" d="M267.767 73.8461H266.709V66.3146H267.767V67.6258C268.234 66.8097 268.976 66.1538 270.199 66.1538C271.917 66.1538 272.92 67.3782 272.92 69.1697V73.8461H271.862V69.4464C271.862 68.0484 271.147 67.174 269.897 67.174C268.673 67.174 267.767 68.121 267.767 69.5339V73.8461Z" fill="#4B71FC"/>
<path fill-rule="evenodd" clip-rule="evenodd" d="M282.551 69.587C282.424 68.2478 281.566 67.0798 279.931 67.0798C278.503 67.0798 277.423 68.1483 277.264 69.587H282.551ZM280.154 72.8916C281.281 72.8916 282.075 72.4784 282.742 71.8522L283.503 72.4645C282.678 73.2909 281.678 73.8461 280.122 73.8461C277.867 73.8461 276.025 72.294 276.025 70.0003C276.025 67.8631 277.692 66.1538 279.963 66.1538C282.392 66.1538 283.789 67.8917 283.789 70.0573C283.789 70.1568 283.789 70.2709 283.773 70.3989H277.264C277.438 71.9942 278.709 72.8916 280.154 72.8916Z" fill="#4B71FC"/>
<path fill-rule="evenodd" clip-rule="evenodd" d="M286.587 73.8461H285.342V66.2879H286.587V68.2614C287.201 67.0041 288.415 66.0974 290 66.1565V67.3696H289.903C288.075 67.3696 286.587 68.5541 286.587 70.8346V73.8461Z" fill="#4B71FC"/>
</g>
<defs>
<clipPath id="clip0_5277_349">
<rect width="250" height="80" fill="white" transform="translate(40 20)"/>
</clipPath>
</defs>
</svg>
