<svg width="200" height="84" viewBox="0 0 200 84" fill="none" xmlns="http://www.w3.org/2000/svg">
<rect width="200" height="84" fill="#FDFAFA"/>
<path d="M193.759 19.902C193.353 19.902 192.956 20.0207 192.619 20.2431C192.282 20.4656 192.019 20.7817 191.863 21.1515C191.708 21.5214 191.667 21.9283 191.746 22.321C191.826 22.7136 192.021 23.0742 192.308 23.3573C192.595 23.6404 192.961 23.8332 193.359 23.9113C193.757 23.9894 194.169 23.9493 194.544 23.7961C194.919 23.6429 195.24 23.3834 195.465 23.0506C195.691 22.7177 195.811 22.3264 195.811 21.9261C195.815 21.6593 195.764 21.3945 195.662 21.1473C195.56 20.9001 195.409 20.6756 195.218 20.4869C195.027 20.2982 194.799 20.1493 194.549 20.0488C194.298 19.9484 194.03 19.8985 193.759 19.902ZM193.759 20.1899C194.108 20.1846 194.451 20.282 194.744 20.4695C195.037 20.6571 195.267 20.9263 195.404 21.2431C195.542 21.5598 195.58 21.9097 195.516 22.2482C195.451 22.5867 195.285 22.8986 195.04 23.144C194.795 23.3895 194.482 23.5575 194.139 23.6267C193.797 23.6959 193.442 23.6631 193.119 23.5325C192.796 23.4019 192.519 23.1794 192.324 22.8934C192.13 22.6073 192.026 22.2706 192.026 21.9261C192.02 21.6989 192.061 21.4729 192.146 21.2616C192.231 21.0503 192.358 20.8579 192.52 20.696C192.681 20.534 192.874 20.4058 193.087 20.3189C193.3 20.2319 193.529 20.1881 193.759 20.1899ZM193.31 22.0545H193.799L194.469 23.0953H194.81L194.1 22.0501C194.267 22.0409 194.423 21.9674 194.535 21.8456C194.646 21.7237 194.705 21.5632 194.698 21.399C194.698 20.9783 194.46 20.7524 193.925 20.7524H193.027V23.0909H193.319L193.31 22.0545ZM193.31 21.8109V21.0004H193.844C194.132 21.0004 194.406 21.0757 194.406 21.4035C194.406 21.8021 194.055 21.8109 193.696 21.8109H193.31Z" fill="#231F20"/>
<path d="M150.572 41.6263C150.599 37.0689 151.994 32.6216 154.582 28.8456C157.169 25.0695 160.832 22.1339 165.109 20.409C169.385 18.6842 174.084 18.2474 178.612 19.1537C183.141 20.0601 187.295 22.269 190.552 25.5017C193.809 28.7345 196.022 32.8463 196.912 37.3184C197.803 41.7905 197.33 46.4224 195.554 50.6299C193.779 54.8374 190.779 58.4318 186.935 60.9598C183.09 63.4877 178.573 64.8359 173.952 64.8343C170.871 64.8261 167.822 64.2193 164.979 63.0484C162.136 61.8775 159.555 60.1656 157.382 58.0103C155.21 55.8551 153.49 53.2988 152.32 50.4876C151.15 47.6763 150.553 44.6652 150.563 41.6263" fill="#F0492D"/>
<path d="M160.594 41.6261C160.61 39.0225 161.407 36.4819 162.885 34.3247C164.364 32.1676 166.456 30.4906 168.9 29.5053C171.343 28.52 174.028 28.2706 176.615 28.7885C179.202 29.3064 181.575 30.5685 183.436 32.4154C185.296 34.2623 186.561 36.6114 187.069 39.1663C187.578 41.7212 187.308 44.3675 186.293 46.7712C185.279 49.175 183.565 51.2285 181.369 52.6728C179.173 54.1171 176.592 54.8874 173.952 54.8866C172.192 54.8814 170.451 54.5342 168.827 53.8649C167.203 53.1956 165.729 52.2173 164.488 50.9859C163.248 49.7545 162.265 48.2941 161.597 46.6882C160.929 45.0822 160.588 43.3621 160.594 41.6261Z" fill="white"/>
<path d="M164.658 41.6263C164.666 39.8136 165.218 38.044 166.245 36.5408C167.272 35.0375 168.728 33.8681 170.428 33.1801C172.128 32.4921 173.997 32.3163 175.798 32.6751C177.599 33.0339 179.253 33.9111 180.549 35.1959C181.845 36.4807 182.726 38.1155 183.082 39.894C183.437 41.6725 183.249 43.5148 182.544 45.1885C181.838 46.8621 180.645 48.292 179.116 49.2976C177.587 50.3032 175.791 50.8395 173.953 50.8386C171.483 50.8304 169.117 49.8558 167.374 48.1286C165.631 46.4015 164.655 44.0629 164.658 41.6263Z" fill="#F0492D"/>
<path d="M174.181 67V16M148.357 41.5022H199.995" stroke="#231F20" stroke-width="0.78" stroke-miterlimit="3.86"/>
<path d="M169.772 41.6262C169.777 40.8107 170.028 40.0151 170.491 39.3397C170.954 38.6643 171.61 38.1393 172.375 37.8311C173.141 37.5229 173.981 37.4452 174.792 37.6078C175.602 37.7704 176.345 38.1661 176.927 38.7449C177.51 39.3236 177.905 40.0596 178.064 40.8599C178.223 41.6602 178.138 42.4889 177.819 43.2415C177.501 43.9942 176.964 44.637 176.276 45.0889C175.588 45.5407 174.779 45.7814 173.953 45.7806C173.401 45.78 172.855 45.6719 172.346 45.4626C171.836 45.2533 171.374 44.9469 170.985 44.5609C170.596 44.1749 170.289 43.7169 170.08 43.2133C169.871 42.7097 169.765 42.1703 169.768 41.6262" fill="#F0492D"/>
<path d="M169.943 41.6261C169.949 40.8441 170.189 40.0812 170.633 39.4336C171.077 38.7859 171.706 38.2826 172.44 37.9869C173.174 37.6913 173.98 37.6167 174.757 37.7725C175.534 37.9282 176.247 38.3074 176.806 38.8622C177.364 39.417 177.744 40.1226 177.897 40.8899C178.049 41.6572 177.968 42.452 177.664 43.174C177.359 43.8959 176.845 44.5128 176.185 44.9467C175.525 45.3806 174.75 45.6122 173.958 45.6122C172.891 45.6052 171.87 45.1821 171.117 44.4353C170.365 43.6885 169.943 42.6787 169.943 41.6261Z" stroke="#231F20" stroke-miterlimit="3.86"/>
<path d="M0 51.4497H6.31328L7.54361 45.5281L9.69444 43.6015L13.4483 51.4497H20.5384L14.6292 39.5489L24.409 31.2224H16.2053L9.205 37.9368L9.15112 37.8792L10.5566 31.2224H4.24328L0 51.4497Z" fill="#231F20"/>
<path d="M21.7051 51.4497H28.0139L32.2572 31.2224H25.9484L21.7051 51.4497Z" fill="#231F20"/>
<path d="M45.7283 43.7522C45.3287 45.5238 44.2106 46.8525 42.2304 46.8525C39.3342 46.8525 38.9346 44.2438 38.9346 42.574C38.9346 39.7129 40.1919 35.7445 43.6942 35.7445C45.643 35.7445 46.5635 36.8252 46.5051 38.7208H52.4727C52.3559 32.6797 48.2833 30.7397 43.7347 30.7397C36.7658 30.7397 32.6348 36.1786 32.6348 42.7246C32.6348 48.1325 35.504 51.9325 41.4401 51.9325C49.9716 51.9325 51.5656 45.8427 51.9383 43.7699L45.7283 43.7522Z" fill="#231F20"/>
<path d="M53.0664 51.4497H59.3752L60.61 45.5281L62.7608 43.6015L66.5147 51.4497H73.6048L67.6956 39.5489L77.4754 31.2224H69.2717L62.2714 37.9368L62.2175 37.8792L63.6185 31.2224H57.3097L53.0664 51.4497Z" fill="#231F20"/>
<path d="M75.543 46.2058H84.5773L85.4978 41.5598H76.459L75.543 46.2058Z" fill="#231F20"/>
<path d="M86.4414 51.4497H103.594L104.681 46.2633H93.8413L94.3847 43.7432H104.254L105.256 38.9289H95.4174L95.9652 36.4043H106.576L107.635 31.2224H90.7116L86.4414 51.4497Z" fill="#231F20"/>
<path d="M106.625 51.4497H123.778L124.869 46.2633H114.025L114.573 43.7432H124.438L125.444 38.9289H115.605L116.149 36.4043H126.759L127.823 31.2224H110.9L106.625 51.4497Z" fill="#231F20"/>
<path d="M125.781 51.4497H143.994L145.085 46.2633H135.188L146.921 36.4043L147.923 31.2224H130.626L129.54 36.4043H138.26L126.841 46.2633L125.781 51.4497Z" fill="#231F20"/>
</svg>
