<svg width="332" height="124" viewBox="0 0 332 124" fill="none" xmlns="http://www.w3.org/2000/svg">
<rect width="332" height="124" rx="62" fill="white"/>
<g clip-path="url(#clip0_5277_348)">
<path d="M142.171 33.48C142.171 34.915 141.329 36.2303 140.005 36.8283C141.81 37.4262 143.014 38.3828 143.014 40.4157C143.014 43.0465 140.848 44.4815 137.478 44.4815H130.498V29.7729H137.237C140.366 29.7729 142.171 31.2079 142.171 33.48ZM139.644 33.9583C139.644 32.7625 138.681 32.045 136.997 32.045H133.146V35.9912H136.756C138.441 35.9912 139.644 35.2737 139.644 33.9583ZM140.366 40.1765C140.366 38.8611 139.403 38.1437 137.237 38.1437H133.025V42.329H137.478C139.283 42.329 140.366 41.6115 140.366 40.1765Z" fill="#4C4B58"/>
<path d="M145.783 31.686V29.1748H148.551V31.686H145.783ZM145.783 44.6008V33.3602H148.431V44.6008H145.783Z" fill="#4C4B58"/>
<path d="M156.853 48.0688C155.048 48.0688 153.363 47.5905 151.799 46.7534L152.761 44.8401C153.965 45.6771 155.409 46.0359 156.853 46.0359C158.538 46.2751 160.223 45.0792 160.463 43.4051C160.463 43.1659 160.463 42.9268 160.463 42.568V41.731C159.621 43.0464 158.057 43.7638 156.492 43.7638C153.724 43.7638 151.317 41.6114 151.317 38.7414C151.317 38.6218 151.317 38.5023 151.317 38.3827C151.197 35.6323 153.363 33.2407 156.251 33.1211C156.372 33.1211 156.372 33.1211 156.492 33.1211C158.057 33.1211 159.501 33.8386 160.463 35.0344V33.3603H163.111V42.3289C162.87 46.2751 160.704 48.0688 156.853 48.0688ZM156.973 35.2736C155.289 35.154 153.724 36.4694 153.604 38.2631C153.483 40.0568 154.807 41.4918 156.612 41.6114C156.733 41.6114 156.853 41.6114 156.973 41.6114C158.658 41.731 160.223 40.4156 160.343 38.6218C160.463 36.8281 159.14 35.3931 157.334 35.2736C157.334 35.2736 157.094 35.2736 156.973 35.2736Z" fill="#4C4B58"/>
<path d="M173.342 44.8401C169.13 44.8401 165.76 41.6114 165.64 37.4261C165.64 37.3065 165.64 37.1869 165.64 37.1869C165.52 33.0015 168.889 29.5337 173.101 29.4141C173.222 29.4141 173.342 29.4141 173.462 29.4141C175.628 29.2945 177.795 30.1316 179.359 31.6862L177.674 33.5995C176.591 32.4036 175.027 31.8057 173.462 31.6862C170.694 31.6862 168.408 34.0778 168.528 36.8282C168.528 36.9477 168.528 36.9477 168.528 37.0673C168.408 39.8177 170.574 42.2093 173.342 42.4485H173.462C175.147 42.4485 176.711 41.731 177.795 40.4156L179.479 42.0897C177.915 43.8835 175.749 44.9597 173.342 44.8401Z" fill="#4C4B58"/>
<path d="M187.06 44.84C183.811 44.9596 181.163 42.4484 181.043 39.2197C181.043 39.1001 181.043 39.1001 181.043 38.9805C180.923 35.6322 183.57 33.0014 186.94 32.8819C190.309 32.7623 192.957 35.3931 193.077 38.7413C193.198 42.0896 190.55 44.7204 187.181 44.84C187.06 44.84 187.06 44.84 187.06 44.84ZM187.06 35.3931C185.135 35.3931 183.691 36.9476 183.691 38.7413C183.691 38.8609 183.691 38.8609 183.691 38.9805C183.691 40.8938 185.135 42.4484 187.06 42.568C187.06 42.568 187.06 42.568 187.181 42.568C189.106 42.568 190.55 41.0134 190.671 39.2197C190.671 39.1001 190.671 39.1001 190.671 38.9805C190.55 37.0672 188.986 35.3931 187.06 35.3931Z" fill="#4C4B58"/>
<path d="M208.964 33.1211C211.371 33.1211 212.935 34.6757 212.935 37.426V44.6009H210.287V38.2631C210.287 36.4694 209.445 35.5127 208.001 35.5127C206.557 35.5127 205.594 36.4694 205.594 38.2631V44.6009H202.946V38.1435C202.946 36.3498 202.104 35.3931 200.66 35.3931C199.216 35.3931 198.253 36.4694 198.253 38.2631V44.6009H195.605V33.3603H198.253V35.0344C198.975 33.8386 200.299 33.1211 201.743 33.1211C203.187 33.1211 204.511 33.8386 205.113 35.154C205.955 33.8386 207.399 33.1211 208.964 33.1211Z" fill="#4C4B58"/>
<path d="M229.302 33.1211C231.829 33.1211 233.273 34.6757 233.273 37.426V44.6009H230.625V38.2631C230.625 36.4694 229.783 35.5127 228.339 35.5127C226.895 35.5127 225.932 36.4694 225.932 38.2631V44.6009H223.284V38.1435C223.284 36.3498 222.442 35.3931 220.998 35.3931C219.554 35.3931 218.591 36.4694 218.591 38.2631V44.6009H215.943V33.3603H218.591V35.0344C219.313 33.8386 220.637 33.1211 222.081 33.1211C223.525 33.1211 224.849 33.8386 225.451 35.154C226.293 33.8386 227.737 33.1211 229.302 33.1211Z" fill="#4C4B58"/>
<path d="M241.576 42.8072C242.779 42.8072 243.862 42.3289 244.705 41.4918L246.269 42.8072C245.186 44.2422 243.381 44.9597 241.576 44.9597C238.447 45.0793 235.799 42.5681 235.799 39.459C235.799 39.3394 235.799 39.2198 235.799 39.1002C235.679 35.9911 238.086 33.3603 241.094 33.2407C241.215 33.2407 241.215 33.2407 241.335 33.2407C244.945 33.2407 246.751 36.1107 246.751 39.3394C246.751 39.5785 246.751 39.8177 246.751 40.0569H238.447C238.447 41.4918 239.891 42.8072 241.576 42.8072ZM244.103 38.1436C244.103 36.589 242.9 35.154 241.215 35.154C239.65 35.2736 238.326 36.4694 238.326 38.1436H244.103Z" fill="#4C4B58"/>
<path d="M251.806 44.6008H249.158V33.3602H251.806V35.8714C252.407 34.1973 253.972 33.0014 255.777 33.121V35.8714H255.657C253.37 35.8714 251.806 37.3064 251.806 40.2959V44.6008Z" fill="#4C4B58"/>
<path d="M262.877 44.8398C259.628 44.8398 257.101 42.3286 256.98 39.2195V39.0999C256.98 35.8712 259.508 33.2404 262.757 33.2404H262.877C264.562 33.1209 266.247 33.8383 267.45 35.1537L265.886 36.8279C265.164 35.9908 264.081 35.3929 262.998 35.3929C261.072 35.5125 259.628 37.067 259.748 38.9804C259.628 40.8937 261.193 42.4482 262.998 42.5678H263.118C264.201 42.5678 265.284 42.0895 266.006 41.2524L267.571 42.807C266.367 44.1224 264.682 44.9594 262.877 44.8398Z" fill="#4C4B58"/>
<path d="M274.791 42.8072C275.994 42.8072 277.077 42.3289 277.92 41.4918L279.484 42.8072C278.401 44.2422 276.596 44.9597 274.791 44.9597C271.662 45.0793 269.014 42.5681 269.014 39.459C269.014 39.3394 269.014 39.2198 269.014 39.1002C268.894 35.9911 271.301 33.3603 274.309 33.2407C274.43 33.2407 274.43 33.2407 274.55 33.2407C278.16 33.2407 279.965 36.1107 279.965 39.3394C279.965 39.5785 279.965 39.8177 279.965 40.0569H271.662C271.662 41.4918 273.106 42.8072 274.791 42.8072ZM277.318 38.1436C277.318 36.589 275.994 35.2736 274.43 35.154C272.865 35.2736 271.541 36.4694 271.541 38.1436H277.318Z" fill="#4C4B58"/>
<path d="M139.043 71.387H135.433V77.964H130.619V56.2002H139.525C144.699 56.2002 147.949 59.3093 147.949 63.7338C147.828 68.8758 143.977 71.387 139.043 71.387ZM143.015 63.8534C143.015 61.7009 141.57 60.5051 139.164 60.5051H135.433V67.0821H139.284C141.57 67.2017 143.015 65.7667 143.015 63.8534Z" fill="#4C4B58"/>
<path d="M167.324 77.964L165.278 73.0611H156.011L153.965 77.964H149.031L158.418 56.0806H162.871L172.258 77.964H167.324ZM160.705 61.8205L157.816 68.8758H163.593L160.705 61.8205Z" fill="#4C4B58"/>
<path d="M190.791 77.964L186.097 71.0283H182.366V77.964H177.553V56.2002H187.541C192.716 56.2002 195.725 58.9506 195.725 63.3751V63.4947C195.845 66.4842 193.919 69.2346 191.031 70.1912L196.326 77.964H190.791ZM190.911 63.6142C190.911 61.5814 189.467 60.5051 187.18 60.5051H182.366V66.7234H187.18C189.467 66.8429 190.791 65.6471 190.911 63.6142Z" fill="#4C4B58"/>
<path d="M211.731 60.6247V77.964H206.918V60.6247H200.299V56.2002H218.35V60.6247H211.731Z" fill="#4C4B58"/>
<path d="M239.289 77.964L228.699 64.2122V77.964H223.885V56.2002H228.337L238.567 69.5933V56.2002H243.26V77.964H239.289Z" fill="#4C4B58"/>
<path d="M250.361 77.964V56.2002H266.848V60.3855H255.175V64.8101H265.525V69.115H255.175V73.6591H267.089V77.8444L250.361 77.964Z" fill="#4C4B58"/>
<path d="M286.343 77.964L281.65 71.0283H277.919V77.964H273.105V56.2002H283.094C288.269 56.2002 291.398 58.9506 291.398 63.3751V63.4947C291.518 66.4842 289.593 69.2346 286.704 70.1912L291.999 77.964H286.343ZM286.464 63.6142C286.464 61.5814 285.02 60.5051 282.733 60.5051H277.919V66.7234H282.853C285.02 66.8429 286.464 65.6471 286.464 63.6142Z" fill="#4C4B58"/>
<path d="M106.67 67.0822C106.67 91.1181 73.3352 102 73.3352 102C73.3352 102 40 91.1181 40 67.0822V22H106.55V67.0822H106.67Z" fill="#4C4B58"/>
<path d="M40 68.3976V22H86.6934L40 68.3976Z" fill="#82818A"/>
<path d="M75.8624 73.4199H58.1719V36.4692H75.5014C83.083 36.4692 87.7765 40.1763 87.7765 46.0358V46.1553C87.8968 49.5036 85.9713 52.6127 82.8424 54.1673C87.1747 55.8414 89.8223 58.3526 89.8223 63.2555C89.8223 70.0716 84.2865 73.4199 75.8624 73.4199ZM79.5931 47.3512C79.5931 44.9595 77.6676 43.5245 74.1776 43.5245H65.9942V51.2973H73.6962C77.3065 51.2973 79.5931 50.1015 79.5931 47.3512ZM81.6389 62.1793C81.6389 59.668 79.8338 58.2331 75.6217 58.2331H66.1146V66.245H75.8624C79.4727 66.245 81.6389 64.9296 81.6389 62.1793Z" fill="white"/>
</g>
<defs>
<clipPath id="clip0_5277_348">
<rect width="252" height="80" fill="white" transform="translate(40 22)"/>
</clipPath>
</defs>
</svg>
