<svg width="20" height="20" viewBox="0 0 20 20" fill="none" xmlns="http://www.w3.org/2000/svg">
<path d="M9.9995 0C4.47625 0 0 4.47725 0 9.9995C0 14.2355 2.6355 17.857 6.35604 19.3143C6.26795 18.5236 6.18988 17.3064 6.39007 16.4436C6.57224 15.6629 7.56318 11.4729 7.56318 11.4729C7.56318 11.4729 7.2639 10.8733 7.2639 9.98749C7.2639 8.59817 8.06966 7.56018 9.07362 7.56018C9.92743 7.56018 10.3388 8.20079 10.3388 8.96852C10.3388 9.82733 9.7923 11.1096 9.51103 12.2987C9.27581 13.2936 10.0105 14.1054 10.9914 14.1054C12.7681 14.1054 14.1354 12.2316 14.1354 9.52605C14.1354 7.13177 12.4148 5.45818 9.95846 5.45818C7.11276 5.45818 5.44217 7.59221 5.44217 9.79731C5.44217 10.6561 5.77348 11.578 6.18688 12.0795C6.22201 12.1172 6.24681 12.1634 6.25891 12.2136C6.27101 12.2637 6.26999 12.3161 6.25594 12.3657C6.17987 12.681 6.01071 13.3607 5.97868 13.4998C5.93464 13.683 5.83354 13.722 5.64336 13.6339C4.39517 13.0524 3.61443 11.2267 3.61443 9.75927C3.61443 6.60527 5.90561 3.70852 10.2217 3.70852C13.691 3.70852 16.3866 6.17987 16.3866 9.48401C16.3866 12.9313 14.2135 15.7029 11.1976 15.7029C10.1837 15.7029 9.23177 15.1774 8.90546 14.5558L8.28187 16.9321C8.05665 17.8009 7.44707 18.8899 7.03969 19.5546C7.99871 19.8507 8.99681 20.0008 10.0005 20C15.5227 20 20 15.5227 20 10.0005C20 4.47825 15.5217 0 9.9995 0Z" fill="#101820"/>
</svg>
