<svg width="20" height="20" viewBox="0 0 20 20" fill="none" xmlns="http://www.w3.org/2000/svg">
<path d="M18.8889 0H1.11111C0.816426 0 0.533811 0.117063 0.325437 0.325437C0.117063 0.533811 0 0.816426 0 1.11111V18.8889C0 19.1836 0.117063 19.4662 0.325437 19.6746C0.533811 19.8829 0.816426 20 1.11111 20H18.8889C19.1836 20 19.4662 19.8829 19.6746 19.6746C19.8829 19.4662 20 19.1836 20 18.8889V1.11111C20 0.816426 19.8829 0.533811 19.6746 0.325437C19.4662 0.117063 19.1836 0 18.8889 0ZM5.93222 17.0411H2.96333V7.49667H5.93222V17.0411ZM4.44778 6.19333C3.99161 6.19333 3.55412 6.01212 3.23155 5.68956C2.90899 5.36699 2.72778 4.92951 2.72778 4.47333C2.72778 4.01716 2.90899 3.57967 3.23155 3.25711C3.55412 2.93455 3.99161 2.75333 4.44778 2.75333C4.90395 2.75333 5.34144 2.93455 5.664 3.25711C5.98656 3.57967 6.16778 4.01716 6.16778 4.47333C6.16778 4.92951 5.98656 5.36699 5.664 5.68956C5.34144 6.01212 4.90395 6.19333 4.44778 6.19333ZM17.0422 17.0411H14.0767V12.4C14.0767 11.2933 14.0567 9.87 12.5344 9.87C10.99 9.87 10.7556 11.0767 10.7556 12.3222V17.0422H7.79222V7.49778H10.6367V8.80222H10.6778C11.0722 8.05222 12.0411 7.26111 13.4822 7.26111C16.4867 7.26111 17.0411 9.23667 17.0411 11.8078L17.0422 17.0411Z" fill="#101820"/>
</svg>
