<svg width="20" height="18" viewBox="0 0 20 18" fill="none" xmlns="http://www.w3.org/2000/svg">
<path d="M17.9452 4.4859C17.9585 4.68325 17.9585 4.87946 17.9585 5.07568C17.9585 11.0806 13.8337 18 6.29554 18C3.97313 18 1.81559 17.2546 0 15.96C0.329737 16.0018 0.647262 16.0164 0.99023 16.0164C2.83533 16.0214 4.62818 15.3377 6.07979 14.0757C5.22432 14.0585 4.39505 13.7458 3.70775 13.1811C3.02046 12.6165 2.50945 11.8281 2.24608 10.9261C2.49949 10.9678 2.75392 10.996 3.02056 10.996C3.38795 10.996 3.75738 10.9396 4.10035 10.8415C3.17195 10.6338 2.33714 10.0762 1.73786 9.26352C1.13857 8.45084 0.811819 7.43326 0.813149 6.38379V6.3274C1.35966 6.66458 1.99369 6.87545 2.66538 6.90365C2.10268 6.48932 1.64128 5.9271 1.32235 5.26715C1.00342 4.6072 0.836875 3.87003 0.837574 3.12141C0.837574 2.27791 1.0401 1.50432 1.39528 0.829972C2.42534 2.23395 3.71006 3.38254 5.16623 4.20134C6.6224 5.02015 8.21755 5.49091 9.84836 5.58314C9.78526 5.24483 9.74659 4.89412 9.74659 4.54229C9.74632 3.9457 9.85217 3.35491 10.0581 2.80368C10.264 2.25245 10.5659 1.75159 10.9467 1.32974C11.3274 0.907895 11.7794 0.573324 12.2769 0.345158C12.7743 0.116992 13.3075 -0.000295879 13.8459 5.60527e-07C15.0265 5.60527e-07 16.092 0.548052 16.841 1.43441C17.7588 1.23776 18.6389 0.866533 19.4423 0.337176C19.1364 1.38684 18.4956 2.2769 17.6399 2.84062C18.4539 2.73775 19.2494 2.50057 20 2.13695C19.4394 3.04259 18.7447 3.83675 17.9452 4.4859Z" fill="#101820"/>
</svg>
